<mxfile host="app.diagrams.net" agent="Mozilla/5.0 (Windows NT 10.0; Win64; x64) AppleWebKit/537.36 (KHTML, like Gecko) Chrome/131.0.0.0 Safari/537.36" version="25.0.3">
  <diagram name="หน้า-1" id="_r8m-tkBFyFCfnlX5wK8">
    <mxGraphModel dx="1034" dy="446" grid="1" gridSize="10" guides="1" tooltips="1" connect="1" arrows="1" fold="1" page="1" pageScale="1" pageWidth="827" pageHeight="1169" math="0" shadow="0">
      <root>
        <mxCell id="0" />
        <mxCell id="1" parent="0" />
        <mxCell id="gjJDVyokZE2rFaOXEqMd-3" value="" style="edgeStyle=orthogonalEdgeStyle;rounded=0;orthogonalLoop=1;jettySize=auto;html=1;" edge="1" parent="1" source="gjJDVyokZE2rFaOXEqMd-1" target="gjJDVyokZE2rFaOXEqMd-2">
          <mxGeometry relative="1" as="geometry" />
        </mxCell>
        <mxCell id="gjJDVyokZE2rFaOXEqMd-1" value="start" style="ellipse;whiteSpace=wrap;html=1;" vertex="1" parent="1">
          <mxGeometry x="350" y="90" width="120" height="80" as="geometry" />
        </mxCell>
        <mxCell id="gjJDVyokZE2rFaOXEqMd-5" value="" style="edgeStyle=orthogonalEdgeStyle;rounded=0;orthogonalLoop=1;jettySize=auto;html=1;" edge="1" parent="1" source="gjJDVyokZE2rFaOXEqMd-2" target="gjJDVyokZE2rFaOXEqMd-4">
          <mxGeometry relative="1" as="geometry" />
        </mxCell>
        <mxCell id="gjJDVyokZE2rFaOXEqMd-2" value="สร้างตัวแปร char arr[ 100 ];&lt;div&gt;char c ;&lt;/div&gt;&lt;div&gt;int index = 0 ;&lt;/div&gt;" style="whiteSpace=wrap;html=1;" vertex="1" parent="1">
          <mxGeometry x="310" y="260" width="200" height="60" as="geometry" />
        </mxCell>
        <mxCell id="gjJDVyokZE2rFaOXEqMd-7" value="" style="edgeStyle=orthogonalEdgeStyle;rounded=0;orthogonalLoop=1;jettySize=auto;html=1;" edge="1" parent="1" source="gjJDVyokZE2rFaOXEqMd-4" target="gjJDVyokZE2rFaOXEqMd-6">
          <mxGeometry relative="1" as="geometry" />
        </mxCell>
        <mxCell id="gjJDVyokZE2rFaOXEqMd-4" value="แสดงคำว่า Enter 1 character :" style="shape=parallelogram;perimeter=parallelogramPerimeter;whiteSpace=wrap;html=1;fixedSize=1;" vertex="1" parent="1">
          <mxGeometry x="305" y="390" width="210" height="60" as="geometry" />
        </mxCell>
        <mxCell id="gjJDVyokZE2rFaOXEqMd-9" value="" style="edgeStyle=orthogonalEdgeStyle;rounded=0;orthogonalLoop=1;jettySize=auto;html=1;" edge="1" parent="1" source="gjJDVyokZE2rFaOXEqMd-6" target="gjJDVyokZE2rFaOXEqMd-8">
          <mxGeometry relative="1" as="geometry" />
        </mxCell>
        <mxCell id="gjJDVyokZE2rFaOXEqMd-20" value="" style="edgeStyle=orthogonalEdgeStyle;rounded=0;orthogonalLoop=1;jettySize=auto;html=1;" edge="1" parent="1" source="gjJDVyokZE2rFaOXEqMd-6" target="gjJDVyokZE2rFaOXEqMd-19">
          <mxGeometry relative="1" as="geometry" />
        </mxCell>
        <mxCell id="gjJDVyokZE2rFaOXEqMd-6" value="c != &#39;y&#39; || c != &#39;Y&#39; ?" style="rhombus;whiteSpace=wrap;html=1;" vertex="1" parent="1">
          <mxGeometry x="330" y="520" width="160" height="80" as="geometry" />
        </mxCell>
        <mxCell id="gjJDVyokZE2rFaOXEqMd-11" value="" style="edgeStyle=orthogonalEdgeStyle;rounded=0;orthogonalLoop=1;jettySize=auto;html=1;" edge="1" parent="1" source="gjJDVyokZE2rFaOXEqMd-8" target="gjJDVyokZE2rFaOXEqMd-10">
          <mxGeometry relative="1" as="geometry" />
        </mxCell>
        <mxCell id="gjJDVyokZE2rFaOXEqMd-8" value="รับค่าจากผู้ใช้" style="shape=parallelogram;perimeter=parallelogramPerimeter;whiteSpace=wrap;html=1;fixedSize=1;" vertex="1" parent="1">
          <mxGeometry x="350" y="690" width="120" height="60" as="geometry" />
        </mxCell>
        <mxCell id="gjJDVyokZE2rFaOXEqMd-16" value="" style="edgeStyle=orthogonalEdgeStyle;rounded=0;orthogonalLoop=1;jettySize=auto;html=1;" edge="1" parent="1" source="gjJDVyokZE2rFaOXEqMd-10" target="gjJDVyokZE2rFaOXEqMd-15">
          <mxGeometry relative="1" as="geometry" />
        </mxCell>
        <mxCell id="gjJDVyokZE2rFaOXEqMd-10" value="แสดงค่าว่า Enter 1 character ซ้ำ" style="shape=parallelogram;perimeter=parallelogramPerimeter;whiteSpace=wrap;html=1;fixedSize=1;" vertex="1" parent="1">
          <mxGeometry x="295" y="830" width="230" height="60" as="geometry" />
        </mxCell>
        <mxCell id="gjJDVyokZE2rFaOXEqMd-12" value="T" style="text;html=1;align=center;verticalAlign=middle;resizable=0;points=[];autosize=1;strokeColor=none;fillColor=none;" vertex="1" parent="1">
          <mxGeometry x="425" y="608" width="30" height="30" as="geometry" />
        </mxCell>
        <mxCell id="gjJDVyokZE2rFaOXEqMd-18" value="" style="edgeStyle=orthogonalEdgeStyle;rounded=0;orthogonalLoop=1;jettySize=auto;html=1;" edge="1" parent="1" source="gjJDVyokZE2rFaOXEqMd-15" target="gjJDVyokZE2rFaOXEqMd-17">
          <mxGeometry relative="1" as="geometry" />
        </mxCell>
        <mxCell id="gjJDVyokZE2rFaOXEqMd-15" value="c == &#39;y&#39; ||&amp;nbsp; c == &#39;Y&#39; ?" style="rhombus;whiteSpace=wrap;html=1;" vertex="1" parent="1">
          <mxGeometry x="320" y="970" width="180" height="120" as="geometry" />
        </mxCell>
        <mxCell id="gjJDVyokZE2rFaOXEqMd-17" value="break ;" style="whiteSpace=wrap;html=1;" vertex="1" parent="1">
          <mxGeometry x="350" y="1200" width="120" height="60" as="geometry" />
        </mxCell>
        <mxCell id="gjJDVyokZE2rFaOXEqMd-27" style="edgeStyle=orthogonalEdgeStyle;rounded=0;orthogonalLoop=1;jettySize=auto;html=1;exitX=0.5;exitY=1;exitDx=0;exitDy=0;" edge="1" parent="1" source="gjJDVyokZE2rFaOXEqMd-19" target="gjJDVyokZE2rFaOXEqMd-26">
          <mxGeometry relative="1" as="geometry">
            <Array as="points">
              <mxPoint x="685" y="1400" />
            </Array>
          </mxGeometry>
        </mxCell>
        <mxCell id="gjJDVyokZE2rFaOXEqMd-19" value="แสดงคำว่า String :" style="shape=parallelogram;perimeter=parallelogramPerimeter;whiteSpace=wrap;html=1;fixedSize=1;" vertex="1" parent="1">
          <mxGeometry x="590" y="530" width="190" height="60" as="geometry" />
        </mxCell>
        <mxCell id="gjJDVyokZE2rFaOXEqMd-21" value="F" style="text;html=1;align=center;verticalAlign=middle;resizable=0;points=[];autosize=1;strokeColor=none;fillColor=none;" vertex="1" parent="1">
          <mxGeometry x="475" y="498" width="30" height="30" as="geometry" />
        </mxCell>
        <mxCell id="gjJDVyokZE2rFaOXEqMd-22" value="" style="shape=waypoint;sketch=0;fillStyle=solid;size=6;pointerEvents=1;points=[];fillColor=none;resizable=0;rotatable=0;perimeter=centerPerimeter;snapToPoint=1;" vertex="1" parent="1">
          <mxGeometry x="400" y="770" width="20" height="20" as="geometry" />
        </mxCell>
        <mxCell id="gjJDVyokZE2rFaOXEqMd-23" style="edgeStyle=orthogonalEdgeStyle;rounded=0;orthogonalLoop=1;jettySize=auto;html=1;exitX=0;exitY=0.5;exitDx=0;exitDy=0;entryX=0.2;entryY=0.65;entryDx=0;entryDy=0;entryPerimeter=0;" edge="1" parent="1" source="gjJDVyokZE2rFaOXEqMd-15" target="gjJDVyokZE2rFaOXEqMd-22">
          <mxGeometry relative="1" as="geometry">
            <Array as="points">
              <mxPoint x="240" y="1030" />
              <mxPoint x="240" y="780" />
            </Array>
          </mxGeometry>
        </mxCell>
        <mxCell id="gjJDVyokZE2rFaOXEqMd-24" value="F" style="text;html=1;align=center;verticalAlign=middle;resizable=0;points=[];autosize=1;strokeColor=none;fillColor=none;" vertex="1" parent="1">
          <mxGeometry x="295" y="988" width="30" height="30" as="geometry" />
        </mxCell>
        <mxCell id="gjJDVyokZE2rFaOXEqMd-25" value="T" style="text;html=1;align=center;verticalAlign=middle;resizable=0;points=[];autosize=1;strokeColor=none;fillColor=none;" vertex="1" parent="1">
          <mxGeometry x="415" y="1098" width="30" height="30" as="geometry" />
        </mxCell>
        <mxCell id="gjJDVyokZE2rFaOXEqMd-26" value="end" style="ellipse;whiteSpace=wrap;html=1;" vertex="1" parent="1">
          <mxGeometry x="350" y="1450" width="120" height="80" as="geometry" />
        </mxCell>
      </root>
    </mxGraphModel>
  </diagram>
</mxfile>
